<svg width="215" height="35" viewBox="0 0 215 35" fill="none" xmlns="http://www.w3.org/2000/svg">
<path d="M17.9243 5.71927C17.9243 5.88222 17.859 6.02886 17.7284 6.15922C17.6304 6.25698 17.4998 6.30586 17.3366 6.30586H7.15012C6.98687 6.30586 6.90525 6.38734 6.90525 6.55028V14.2737C6.90525 14.4367 6.98687 14.5182 7.15012 14.5182H12.978C13.1412 14.5182 13.2718 14.5833 13.3697 14.7137C13.5003 14.8115 13.5656 14.9418 13.5656 15.1047V19.8464C13.5656 20.0093 13.5003 20.156 13.3697 20.2863C13.2718 20.3841 13.1412 20.433 12.978 20.433H7.15012C6.98687 20.433 6.90525 20.5144 6.90525 20.6774V34.0223C6.90525 34.1853 6.83995 34.3319 6.70936 34.4623C6.61141 34.5601 6.48081 34.6089 6.31757 34.6089H0.587681C0.424436 34.6089 0.277516 34.5601 0.14692 34.4623C0.0489734 34.3319 0 34.1853 0 34.0223V0.977653C0 0.814711 0.0489734 0.684356 0.14692 0.58659C0.277516 0.456236 0.424436 0.391059 0.587681 0.391059H17.3366C17.4998 0.391059 17.6304 0.456236 17.7284 0.58659C17.859 0.684356 17.9243 0.814711 17.9243 0.977653V5.71927Z" fill="#1F2937"/>
<path d="M20.7108 34.6089C20.5475 34.6089 20.4006 34.5601 20.27 34.4623C20.1721 34.3319 20.1231 34.1853 20.1231 34.0223V0.977653C20.1231 0.814711 20.1721 0.684356 20.27 0.58659C20.4006 0.456236 20.5475 0.391059 20.7108 0.391059H26.4407C26.6039 0.391059 26.7345 0.456236 26.8325 0.58659C26.963 0.684356 27.0283 0.814711 27.0283 0.977653V34.0223C27.0283 34.1853 26.963 34.3319 26.8325 34.4623C26.7345 34.5601 26.6039 34.6089 26.4407 34.6089H20.7108Z" fill="#1F2937"/>
<path d="M49.9219 0.391059C50.0851 0.391059 50.2157 0.456236 50.3137 0.58659C50.4443 0.684356 50.5096 0.814711 50.5096 0.977653V5.71927C50.5096 5.88222 50.4443 6.02886 50.3137 6.15922C50.2157 6.25698 50.0851 6.30586 49.9219 6.30586H43.8002C43.637 6.30586 43.5553 6.38734 43.5553 6.55028V34.0223C43.5553 34.1853 43.49 34.3319 43.3594 34.4623C43.2615 34.5601 43.1309 34.6089 42.9677 34.6089H37.2378C37.0745 34.6089 36.9276 34.5601 36.797 34.4623C36.6991 34.3319 36.6501 34.1853 36.6501 34.0223V6.55028C36.6501 6.38734 36.5685 6.30586 36.4052 6.30586H30.5284C30.3652 6.30586 30.2182 6.25698 30.0877 6.15922C29.9897 6.02886 29.9407 5.88222 29.9407 5.71927V0.977653C29.9407 0.814711 29.9897 0.684356 30.0877 0.58659C30.2182 0.456236 30.3652 0.391059 30.5284 0.391059H49.9219Z" fill="#1F2937"/>
<path d="M67.3453 0.977653C67.3453 0.814711 67.3943 0.684356 67.4922 0.58659C67.6228 0.456236 67.7698 0.391059 67.933 0.391059H73.6139C73.7772 0.391059 73.9078 0.456236 74.0057 0.58659C74.1363 0.684356 74.2016 0.814711 74.2016 0.977653V34.0223C74.2016 34.1853 74.1363 34.3319 74.0057 34.4623C73.9078 34.5601 73.7772 34.6089 73.6139 34.6089H67.1494C66.8229 34.6089 66.6107 34.446 66.5128 34.1201L60.4401 15.2025C60.4074 15.1047 60.3421 15.0722 60.2442 15.1047C60.1789 15.1047 60.1462 15.1536 60.1462 15.2514L60.1952 34.0223C60.1952 34.1853 60.1299 34.3319 59.9993 34.4623C59.9014 34.5601 59.7708 34.6089 59.6075 34.6089H53.9266C53.7634 34.6089 53.6164 34.5601 53.4858 34.4623C53.3879 34.3319 53.3389 34.1853 53.3389 34.0223V0.977653C53.3389 0.814711 53.3879 0.684356 53.4858 0.58659C53.6164 0.456236 53.7634 0.391059 53.9266 0.391059H60.3421C60.6686 0.391059 60.8808 0.554001 60.9788 0.879886L67.1004 19.7975C67.1331 19.8953 67.1821 19.9441 67.2474 19.9441C67.3453 19.9115 67.3943 19.8464 67.3943 19.7486L67.3453 0.977653Z" fill="#1F2937"/>
<path d="M95.9787 5.71927C95.9787 5.88222 95.9134 6.02886 95.7828 6.15922C95.6848 6.25698 95.5543 6.30586 95.391 6.30586H85.1556C84.9923 6.30586 84.9107 6.38734 84.9107 6.55028V14.2737C84.9107 14.4367 84.9923 14.5182 85.1556 14.5182H91.0324C91.1956 14.5182 91.3262 14.5833 91.4242 14.7137C91.5548 14.8115 91.6201 14.9418 91.6201 15.1047V19.8464C91.6201 20.0093 91.5548 20.156 91.4242 20.2863C91.3262 20.3841 91.1956 20.433 91.0324 20.433H85.1556C84.9923 20.433 84.9107 20.5144 84.9107 20.6774V28.4497C84.9107 28.6127 84.9923 28.6941 85.1556 28.6941H95.391C95.5543 28.6941 95.6848 28.7593 95.7828 28.8897C95.9134 28.9874 95.9787 29.1178 95.9787 29.2807V34.0223C95.9787 34.1853 95.9134 34.3319 95.7828 34.4623C95.6848 34.5601 95.5543 34.6089 95.391 34.6089H78.5931C78.4299 34.6089 78.283 34.5601 78.1524 34.4623C78.0544 34.3319 78.0054 34.1853 78.0054 34.0223V0.977653C78.0054 0.814711 78.0544 0.684356 78.1524 0.58659C78.283 0.456236 78.4299 0.391059 78.5931 0.391059H95.391C95.5543 0.391059 95.6848 0.456236 95.7828 0.58659C95.9134 0.684356 95.9787 0.814711 95.9787 0.977653V5.71927Z" fill="#1F2937"/>
<path d="M107.805 35C105.911 35 104.246 34.6252 102.809 33.8757C101.373 33.1262 100.263 32.0833 99.4791 30.7472C98.6956 29.3785 98.3038 27.8142 98.3038 26.0545V24.6369C98.3038 24.4739 98.3527 24.3436 98.4507 24.2458C98.5813 24.1155 98.7282 24.0503 98.8915 24.0503H104.523C104.687 24.0503 104.817 24.1155 104.915 24.2458C105.046 24.3436 105.111 24.4739 105.111 24.6369V25.7123C105.111 26.7225 105.372 27.5372 105.895 28.1564C106.417 28.7756 107.07 29.0852 107.854 29.0852C108.637 29.0852 109.29 28.7919 109.813 28.2053C110.335 27.6187 110.596 26.8529 110.596 25.9078C110.596 24.9302 110.27 24.0992 109.617 23.4148C108.964 22.6979 107.69 21.655 105.797 20.2863C104.164 19.1131 102.842 18.0703 101.83 17.1578C100.818 16.2453 99.9525 15.121 99.2343 13.7849C98.516 12.4488 98.1569 10.9008 98.1569 9.14106C98.1569 6.37104 99.022 4.15503 100.752 2.49302C102.483 0.831006 104.768 0 107.609 0C110.482 0 112.784 0.863594 114.514 2.59078C116.277 4.31797 117.159 6.58287 117.159 9.38547V10.5587C117.159 10.7216 117.093 10.8682 116.963 10.9986C116.865 11.0964 116.734 11.1453 116.571 11.1453H110.939C110.776 11.1453 110.629 11.0964 110.498 10.9986C110.4 10.8682 110.351 10.7216 110.351 10.5587V9.23882C110.351 8.22858 110.09 7.43017 109.568 6.84357C109.078 6.22439 108.425 5.9148 107.609 5.9148C106.825 5.9148 106.188 6.2081 105.699 6.79469C105.209 7.34869 104.964 8.13082 104.964 9.14106C104.964 10.1187 105.274 10.9823 105.895 11.7318C106.515 12.4814 107.739 13.5242 109.568 14.8603C111.592 16.3594 113.11 17.5815 114.122 18.5265C115.167 19.439 115.967 20.4655 116.522 21.6061C117.11 22.7142 117.403 24.0503 117.403 25.6145C117.403 28.4823 116.522 30.7635 114.759 32.4581C112.996 34.1527 110.678 35 107.805 35Z" fill="#1F2937"/>
<path d="M129.076 35C127.182 35 125.517 34.6252 124.08 33.8757C122.644 33.1262 121.534 32.0833 120.75 30.7472C119.966 29.3785 119.575 27.8142 119.575 26.0545V24.6369C119.575 24.4739 119.624 24.3436 119.722 24.2458C119.852 24.1155 119.999 24.0503 120.162 24.0503H125.794C125.958 24.0503 126.088 24.1155 126.186 24.2458C126.317 24.3436 126.382 24.4739 126.382 24.6369V25.7123C126.382 26.7225 126.643 27.5372 127.166 28.1564C127.688 28.7756 128.341 29.0852 129.124 29.0852C129.908 29.0852 130.561 28.7919 131.083 28.2053C131.606 27.6187 131.867 26.8529 131.867 25.9078C131.867 24.9302 131.541 24.0992 130.888 23.4148C130.235 22.6979 128.961 21.655 127.068 20.2863C125.435 19.1131 124.113 18.0703 123.101 17.1578C122.089 16.2453 121.223 15.121 120.505 13.7849C119.787 12.4488 119.428 10.9008 119.428 9.14106C119.428 6.37104 120.293 4.15503 122.023 2.49302C123.754 0.831006 126.039 0 128.88 0C131.753 0 134.054 0.863594 135.785 2.59078C137.548 4.31797 138.429 6.58287 138.429 9.38547V10.5587C138.429 10.7216 138.364 10.8682 138.234 10.9986C138.136 11.0964 138.005 11.1453 137.842 11.1453H132.21C132.047 11.1453 131.9 11.0964 131.769 10.9986C131.671 10.8682 131.622 10.7216 131.622 10.5587V9.23882C131.622 8.22858 131.361 7.43017 130.839 6.84357C130.349 6.22439 129.696 5.9148 128.88 5.9148C128.096 5.9148 127.459 6.2081 126.97 6.79469C126.48 7.34869 126.235 8.13082 126.235 9.14106C126.235 10.1187 126.545 10.9823 127.166 11.7318C127.786 12.4814 129.01 13.5242 130.839 14.8603C132.863 16.3594 134.381 17.5815 135.393 18.5265C136.438 19.439 137.238 20.4655 137.793 21.6061C138.38 22.7142 138.674 24.0503 138.674 25.6145C138.674 28.4823 137.793 30.7635 136.03 32.4581C134.267 34.1527 131.949 35 129.076 35Z" fill="#1F2937"/>
<path d="M151.589 34.6089C151.426 34.6089 151.279 34.5601 151.148 34.4623C151.05 34.3319 151.001 34.1853 151.001 34.0223V0.977653C151.001 0.814711 151.05 0.684356 151.148 0.58659C151.279 0.456236 151.426 0.391059 151.589 0.391059H157.319C157.482 0.391059 157.613 0.456236 157.711 0.58659C157.841 0.684356 157.907 0.814711 157.907 0.977653V28.4497C157.907 28.6127 157.988 28.6941 158.151 28.6941H168.436C168.599 28.6941 168.73 28.7593 168.828 28.8897C168.958 28.9874 169.024 29.1178 169.024 29.2807V34.0223C169.024 34.1853 168.958 34.3319 168.828 34.4623C168.73 34.5601 168.599 34.6089 168.436 34.6089H151.589Z" fill="#D23F57"/>
<path d="M186.575 34.6089C186.183 34.6089 185.971 34.4297 185.938 34.0712L185.155 29.3785C185.155 29.2155 185.057 29.1341 184.861 29.1341H178.641C178.445 29.1341 178.347 29.2155 178.347 29.3785L177.564 34.0712C177.531 34.4297 177.319 34.6089 176.927 34.6089H171.197C170.773 34.6089 170.609 34.3971 170.707 33.9735L177.906 0.928771C177.972 0.570296 178.184 0.391059 178.543 0.391059H185.155C185.514 0.391059 185.726 0.570296 185.791 0.928771L192.941 33.9735L192.99 34.169C192.99 34.4623 192.811 34.6089 192.452 34.6089H186.575ZM179.327 23.5615C179.327 23.7244 179.392 23.8059 179.523 23.8059H183.93C184.093 23.8059 184.159 23.7244 184.126 23.5615L181.824 10.2165C181.792 10.1187 181.743 10.0698 181.677 10.0698C181.612 10.0698 181.563 10.1187 181.531 10.2165L179.327 23.5615Z" fill="#D23F57"/>
<path d="M215 25.1746C215 28.2053 214.086 30.5354 212.257 32.1648C210.429 33.7942 208.062 34.6089 205.156 34.6089H195.9C195.737 34.6089 195.59 34.5601 195.46 34.4623C195.362 34.3319 195.313 34.1853 195.313 34.0223V0.977653C195.313 0.814711 195.362 0.684356 195.46 0.58659C195.59 0.456236 195.737 0.391059 195.9 0.391059H204.079C207.344 0.391059 209.89 1.17318 211.719 2.73743C213.58 4.30167 214.51 6.63175 214.51 9.72765C214.51 12.9539 213.4 15.3003 211.18 16.7668C211.049 16.8645 211.033 16.9623 211.131 17.0601C213.71 18.885 215 21.5899 215 25.1746ZM202.463 6.30586C202.3 6.30586 202.218 6.38734 202.218 6.55028V14.2249C202.218 14.3878 202.3 14.4693 202.463 14.4693H204.226C205.336 14.4693 206.201 14.1271 206.821 13.4427C207.442 12.7258 207.752 11.7318 207.752 10.4609C207.752 9.12477 207.442 8.09823 206.821 7.38128C206.234 6.66434 205.369 6.30586 204.226 6.30586H202.463ZM204.618 28.6453C205.695 28.6453 206.544 28.2542 207.164 27.4721C207.785 26.6899 208.095 25.5819 208.095 24.148C208.095 22.7142 207.785 21.5736 207.164 20.7263C206.544 19.879 205.711 19.4553 204.667 19.4553H202.463C202.3 19.4553 202.218 19.5368 202.218 19.6997V28.4008C202.218 28.5638 202.3 28.6453 202.463 28.6453H204.618Z" fill="#D23F57"/>
</svg>
